<svg version="1.0" preserveAspectRatio="xMidYMid meet" viewBox="23.85 150.5999963856 315.75 73.49999823600001" zoomAndPan="magnify" xmlns:xlink="http://www.w3.org/1999/xlink" xmlns="http://www.w3.org/2000/svg" style="max-height: 500px" width="315.75" height="73.49999823600001"><defs><g/><clipPath id="3e443e8d7e"><path clip-rule="nonzero" d="M 25.847656 151.695312 L 97.097656 151.695312 L 97.097656 222.945312 L 25.847656 222.945312 Z M 25.847656 151.695312"/></clipPath><clipPath id="bf2d8d99f4"><path clip-rule="nonzero" d="M 37 160 L 97.097656 160 L 97.097656 222.945312 L 37 222.945312 Z M 37 160"/></clipPath></defs><g clip-path="url(#3e443e8d7e)"><path fill-rule="nonzero" fill-opacity="1" d="M 97.449219 187.496094 C 97.449219 207.269531 81.421875 223.296875 61.648438 223.296875 C 41.875 223.296875 25.847656 207.269531 25.847656 187.496094 C 25.847656 167.726562 41.875 151.695312 61.648438 151.695312 C 81.421875 151.695312 97.449219 167.726562 97.449219 187.496094" fill="#004aad"/></g><g clip-path="url(#bf2d8d99f4)"><path fill-rule="nonzero" fill-opacity="0.196" d="M 60.863281 160.453125 C 53.894531 160.453125 48.246094 166.101562 48.246094 173.074219 C 48.246094 174.289062 48.8125 177.679688 50.039062 179.554688 C 50.039062 179.554688 54.640625 183.765625 60.851562 189.3125 C 55.402344 189.355469 49.476562 189.378906 44.972656 192.339844 C 41.769531 194.445312 39.351562 198.160156 38.609375 201.921875 C 38.019531 204.894531 35.667969 208.558594 40.375 210.84375 C 42.296875 211.777344 48.804688 217.035156 56.265625 222.894531 C 58.023438 223.15625 59.816406 223.296875 61.648438 223.296875 C 80.648438 223.296875 96.179688 208.492188 97.367188 189.792969 C 83.828125 176.746094 66.734375 161.898438 66.734375 161.898438 C 64.976562 160.914062 61.929688 160.453125 60.863281 160.453125 Z M 60.863281 160.453125" fill="#000000"/></g><path fill-rule="nonzero" fill-opacity="1" d="M 73.484375 173.027344 C 73.484375 173.855469 73.402344 174.675781 73.242188 175.488281 C 73.082031 176.300781 72.839844 177.089844 72.523438 177.855469 C 72.207031 178.621094 71.816406 179.351562 71.359375 180.039062 C 70.898438 180.726562 70.375 181.367188 69.789062 181.953125 C 69.203125 182.535156 68.566406 183.058594 67.875 183.519531 C 67.1875 183.980469 66.460938 184.371094 65.695312 184.6875 C 64.929688 185.003906 64.140625 185.242188 63.328125 185.40625 C 62.515625 185.566406 61.695312 185.648438 60.863281 185.648438 C 60.035156 185.648438 59.214844 185.566406 58.402344 185.40625 C 57.589844 185.242188 56.800781 185.003906 56.035156 184.6875 C 55.269531 184.371094 54.542969 183.980469 53.855469 183.519531 C 53.164062 183.058594 52.527344 182.535156 51.941406 181.953125 C 51.355469 181.367188 50.832031 180.726562 50.371094 180.039062 C 49.910156 179.351562 49.523438 178.621094 49.207031 177.855469 C 48.890625 177.089844 48.648438 176.300781 48.488281 175.488281 C 48.324219 174.675781 48.246094 173.855469 48.246094 173.027344 C 48.246094 172.199219 48.324219 171.378906 48.488281 170.566406 C 48.648438 169.753906 48.890625 168.964844 49.207031 168.199219 C 49.523438 167.433594 49.910156 166.707031 50.371094 166.015625 C 50.832031 165.328125 51.355469 164.691406 51.941406 164.105469 C 52.527344 163.519531 53.164062 162.996094 53.855469 162.535156 C 54.542969 162.074219 55.269531 161.6875 56.035156 161.367188 C 56.800781 161.050781 57.589844 160.8125 58.402344 160.652344 C 59.214844 160.488281 60.035156 160.40625 60.863281 160.40625 C 61.695312 160.40625 62.515625 160.488281 63.328125 160.652344 C 64.140625 160.8125 64.929688 161.050781 65.695312 161.367188 C 66.460938 161.6875 67.1875 162.074219 67.875 162.535156 C 68.566406 162.996094 69.203125 163.519531 69.789062 164.105469 C 70.375 164.691406 70.898438 165.328125 71.359375 166.015625 C 71.816406 166.707031 72.207031 167.433594 72.523438 168.199219 C 72.839844 168.964844 73.082031 169.753906 73.242188 170.566406 C 73.402344 171.378906 73.484375 172.199219 73.484375 173.027344 Z M 73.484375 173.027344" fill="#ffffff"/><path fill-rule="nonzero" fill-opacity="1" d="M 84.925781 201.816406 C 85.402344 204.824219 87.460938 208.421875 82.859375 210.714844 C 78.253906 213.007812 68.984375 214.4375 61.765625 214.4375 C 54.546875 214.4375 45.078125 213.023438 40.371094 210.742188 C 35.667969 208.457031 38.019531 204.792969 38.609375 201.816406 C 39.351562 198.054688 41.769531 194.34375 44.972656 192.238281 C 49.726562 189.113281 56.078125 189.25 61.765625 189.195312 C 67.578125 189.140625 74.164062 188.722656 78.980469 191.976562 C 82.160156 194.121094 84.324219 198.03125 84.925781 201.816406 Z M 84.925781 201.816406" fill="#ffffff"/><path fill-rule="nonzero" fill-opacity="1" d="M 61.648438 214.199219 L 56.625 207.074219 L 61.648438 195.054688 L 66.671875 207.074219 Z M 61.648438 196.351562 L 56.625 189.226562 L 66.671875 189.226562 Z M 61.648438 196.351562" fill="#4f5d73"/><g fill-opacity="1" fill="#004aad"><g transform="translate(108.742777, 205.124987)"><g><path d="M 16.703125 -31.375 L 16.703125 0 L 11.8125 0 L 11.8125 -31.375 L 0.4375 -31.375 L 0.4375 -35.765625 L 28.59375 -35.765625 L 28.59375 -31.375 Z M 16.703125 -31.375"/></g></g></g><g fill-opacity="1" fill="#004aad"><g transform="translate(137.76656, 205.124987)"><g><path d="M 8.078125 -36.03125 C 8.878906 -36.03125 9.5625 -35.75 10.125 -35.1875 C 10.6875 -34.625 10.96875 -33.953125 10.96875 -33.171875 C 10.96875 -32.378906 10.6875 -31.703125 10.125 -31.140625 C 9.5625 -30.578125 8.878906 -30.296875 8.078125 -30.296875 C 7.296875 -30.296875 6.625 -30.578125 6.0625 -31.140625 C 5.5 -31.703125 5.21875 -32.378906 5.21875 -33.171875 C 5.21875 -33.972656 5.492188 -34.648438 6.046875 -35.203125 C 6.609375 -35.753906 7.285156 -36.03125 8.078125 -36.03125 Z M 5.546875 0 L 5.546875 -22.234375 L 1.953125 -22.234375 L 1.953125 -26.140625 L 10.1875 -26.140625 L 10.1875 0 Z M 5.546875 0"/></g></g></g><g fill-opacity="1" fill="#004aad"><g transform="translate(152.022143, 205.124987)"><g><path d="M 19.875 -0.03125 L 19.875 -1.953125 C 18.257812 -0.335938 15.914062 0.46875 12.84375 0.46875 C 9.570312 0.46875 6.914062 -0.703125 4.875 -3.046875 C 2.84375 -5.390625 1.828125 -8.515625 1.828125 -12.421875 C 1.828125 -16.347656 3 -19.695312 5.34375 -22.46875 C 7.6875 -25.25 10.476562 -26.640625 13.71875 -26.640625 C 16.425781 -26.640625 18.476562 -26.003906 19.875 -24.734375 L 19.875 -36.859375 L 24.515625 -36.859375 L 24.515625 -0.03125 Z M 19.875 -20.09375 C 18.695312 -21.851562 17.09375 -22.734375 15.0625 -22.734375 C 12.570312 -22.734375 10.554688 -21.800781 9.015625 -19.9375 C 7.484375 -18.082031 6.71875 -15.722656 6.71875 -12.859375 C 6.71875 -6.566406 9.582031 -3.421875 15.3125 -3.421875 C 16.039062 -3.421875 16.914062 -3.648438 17.9375 -4.109375 C 18.96875 -4.578125 19.613281 -5.070312 19.875 -5.59375 Z M 19.875 -20.09375"/></g></g></g><g fill-opacity="1" fill="#004aad"><g transform="translate(179.874235, 205.124987)"><g><path d="M 13.28125 4.4375 C 12.675781 6.101562 11.410156 7.488281 9.484375 8.59375 C 7.554688 9.695312 5.40625 10.25 3.03125 10.25 L 3.03125 6.109375 C 4.96875 6.109375 6.625 5.65625 8 4.75 C 9.382812 3.84375 10.078125 2.738281 10.078125 1.4375 C 10.078125 0.0078125 9.820312 -1.398438 9.3125 -2.796875 C 8.8125 -4.191406 8.164062 -5.910156 7.375 -7.953125 L 0.296875 -26.140625 L 5.03125 -26.140625 L 12.71875 -5.9375 L 19.625 -26.140625 L 24.359375 -26.140625 Z M 13.28125 4.4375"/></g></g></g><g fill-opacity="1" fill="#004aad"><g transform="translate(204.528583, 205.124987)"><g><path d="M 26.484375 -34.453125 L 24.859375 -30.28125 C 23.296875 -31.414062 20.835938 -31.984375 17.484375 -31.984375 C 14.335938 -31.984375 11.816406 -30.628906 9.921875 -27.921875 C 8.023438 -25.222656 7.078125 -21.742188 7.078125 -17.484375 C 7.078125 -13.410156 8.050781 -10.109375 10 -7.578125 C 11.945312 -5.046875 14.457031 -3.78125 17.53125 -3.78125 C 20.882812 -3.78125 23.460938 -4.96875 25.265625 -7.34375 L 27.953125 -3.609375 C 25.117188 -0.796875 21.472656 0.609375 17.015625 0.609375 C 12.347656 0.609375 8.671875 -1.070312 5.984375 -4.4375 C 3.296875 -7.8125 1.953125 -12.257812 1.953125 -17.78125 C 1.953125 -23.113281 3.382812 -27.546875 6.25 -31.078125 C 9.113281 -34.609375 12.816406 -36.375 17.359375 -36.375 C 21.242188 -36.375 24.285156 -35.734375 26.484375 -34.453125 Z M 26.484375 -34.453125"/></g></g></g><g fill-opacity="1" fill="#004aad"><g transform="translate(234.431135, 205.124987)"><g><path d="M 3.65625 -7.390625 L 3.65625 -36.859375 L 8.296875 -36.859375 L 8.296875 -8.171875 C 8.296875 -6.773438 8.695312 -5.671875 9.5 -4.859375 C 10.3125 -4.054688 11.367188 -3.65625 12.671875 -3.65625 L 12.671875 0.484375 C 6.660156 0.484375 3.65625 -2.140625 3.65625 -7.390625 Z M 3.65625 -7.390625"/></g></g></g><g fill-opacity="1" fill="#004aad"><g transform="translate(249.174923, 205.124987)"><g><path d="M 8.078125 -36.03125 C 8.878906 -36.03125 9.5625 -35.75 10.125 -35.1875 C 10.6875 -34.625 10.96875 -33.953125 10.96875 -33.171875 C 10.96875 -32.378906 10.6875 -31.703125 10.125 -31.140625 C 9.5625 -30.578125 8.878906 -30.296875 8.078125 -30.296875 C 7.296875 -30.296875 6.625 -30.578125 6.0625 -31.140625 C 5.5 -31.703125 5.21875 -32.378906 5.21875 -33.171875 C 5.21875 -33.972656 5.492188 -34.648438 6.046875 -35.203125 C 6.609375 -35.753906 7.285156 -36.03125 8.078125 -36.03125 Z M 5.546875 0 L 5.546875 -22.234375 L 1.953125 -22.234375 L 1.953125 -26.140625 L 10.1875 -26.140625 L 10.1875 0 Z M 5.546875 0"/></g></g></g><g fill-opacity="1" fill="#004aad"><g transform="translate(263.430507, 205.124987)"><g><path d="M 25.3125 -12.625 L 6.46875 -12.625 C 6.46875 -9.5625 7.304688 -7.207031 8.984375 -5.5625 C 10.460938 -4.132812 12.367188 -3.421875 14.703125 -3.421875 C 17.347656 -3.421875 19.5625 -4.191406 21.34375 -5.734375 L 23.296875 -2.390625 C 22.578125 -1.671875 21.476562 -1.050781 20 -0.53125 C 18.144531 0.144531 16.078125 0.484375 13.796875 0.484375 C 10.503906 0.484375 7.710938 -0.628906 5.421875 -2.859375 C 2.867188 -5.316406 1.59375 -8.617188 1.59375 -12.765625 C 1.59375 -17.078125 2.898438 -20.535156 5.515625 -23.140625 C 7.859375 -25.472656 10.632812 -26.640625 13.84375 -26.640625 C 17.570312 -26.640625 20.492188 -25.585938 22.609375 -23.484375 C 24.660156 -21.460938 25.6875 -18.785156 25.6875 -15.453125 C 25.6875 -14.429688 25.5625 -13.488281 25.3125 -12.625 Z M 14.0625 -22.734375 C 12 -22.734375 10.265625 -22.066406 8.859375 -20.734375 C 7.523438 -19.460938 6.769531 -17.878906 6.59375 -15.984375 L 21.0625 -15.984375 C 21.0625 -17.859375 20.476562 -19.421875 19.3125 -20.671875 C 18.03125 -22.046875 16.28125 -22.734375 14.0625 -22.734375 Z M 14.0625 -22.734375"/></g></g></g><g fill-opacity="1" fill="#004aad"><g transform="translate(290.696752, 205.124987)"><g><path d="M 19.390625 0 L 19.390625 -15.203125 C 19.390625 -17.992188 18.96875 -19.945312 18.125 -21.0625 C 17.289062 -22.175781 15.890625 -22.734375 13.921875 -22.734375 C 12.859375 -22.734375 11.75 -22.414062 10.59375 -21.78125 C 9.4375 -21.144531 8.550781 -20.363281 7.9375 -19.4375 L 7.9375 0 L 3.296875 0 L 3.296875 -26.140625 L 6.46875 -26.140625 L 7.9375 -22.78125 C 9.46875 -25.351562 11.96875 -26.640625 15.4375 -26.640625 C 21.164062 -26.640625 24.03125 -23.15625 24.03125 -16.1875 L 24.03125 0 Z M 19.390625 0"/></g></g></g><g fill-opacity="1" fill="#004aad"><g transform="translate(318.011806, 205.124987)"><g><path d="M 4.953125 -22.484375 L 1.921875 -22.484375 L 1.921875 -26.140625 L 4.953125 -26.140625 L 4.953125 -31.609375 L 9.59375 -33.40625 L 9.59375 -26.140625 L 16.765625 -26.140625 L 16.765625 -22.484375 L 9.59375 -22.484375 L 9.59375 -9.5 C 9.59375 -7.300781 9.960938 -5.738281 10.703125 -4.8125 C 11.441406 -3.882812 12.632812 -3.421875 14.28125 -3.421875 C 15.46875 -3.421875 16.695312 -3.722656 17.96875 -4.328125 L 18.65625 -0.25 C 16.726562 0.238281 14.617188 0.484375 12.328125 0.484375 C 10.265625 0.484375 8.519531 -0.28125 7.09375 -1.8125 C 5.664062 -3.351562 4.953125 -5.296875 4.953125 -7.640625 Z M 4.953125 -22.484375"/></g></g></g></svg>